<svg width="778" height="758" viewBox="0 0 778 758" fill="none" xmlns="http://www.w3.org/2000/svg">
<path d="M163.193 40.7987C158.863 10.8458 192.018 -10.1129 217.217 6.64836L394.038 124.262C404.435 131.178 417.728 132.031 428.923 126.501L619.55 32.343C646.728 18.9185 676.96 44.041 668.738 73.2175L611.16 277.527C607.766 289.57 611.059 302.51 619.798 311.465L767.938 463.276C789.088 484.95 774.597 521.434 744.34 522.69L531.85 531.512C519.391 532.029 508.148 539.136 502.336 550.169L403.211 738.33C389.097 765.122 349.924 762.561 339.419 734.158L265.836 535.216C261.496 523.481 251.22 514.955 238.885 512.855L29.63 477.22C-0.252789 472.131 -9.97704 434.045 13.8085 415.253L180.639 283.45C190.436 275.709 195.368 263.336 193.582 250.978L163.193 40.7987Z" fill="url(#paint0_radial_124_34)" fill-opacity="0.6"/>
<defs>
<radialGradient id="paint0_radial_124_34" cx="0" cy="0" r="1" gradientUnits="userSpaceOnUse" gradientTransform="translate(396.705 350.394) rotate(57.7016) scale(458 459)">
<stop stop-color="#FFF6F6"/>
<stop offset="1" stop-color="#B7F4EE"/>
</radialGradient>
</defs>
</svg>
