<svg width="708" height="683" viewBox="0 0 708 683" fill="none" xmlns="http://www.w3.org/2000/svg">
<path d="M385.067 10.3004C394.269 -5.21559 417.887 -0.377001 420.246 17.5075L449.353 238.173C450.412 246.201 456.444 252.676 464.377 254.301L692.546 301.046C710.861 304.798 713.315 329.965 696.07 337.185L488.041 424.279C480.132 427.591 475.42 435.789 476.542 444.29L505.187 661.453C507.58 679.598 485.455 690.304 472.712 677.167L311.709 511.182C306.266 505.571 297.943 503.866 290.733 506.885L77.4302 596.187C60.5477 603.255 44.4145 584.711 53.7505 568.969L165.483 380.564C169.857 373.189 168.749 363.799 162.779 357.644L5.75623 195.763C-7.2604 182.343 4.89276 160.168 23.2076 163.92L251.377 210.665C259.31 212.29 267.402 208.708 271.533 201.743L385.067 10.3004Z" fill="url(#paint0_radial_124_33)" fill-opacity="0.8"/>
<defs>
<radialGradient id="paint0_radial_124_33" cx="0" cy="0" r="1" gradientUnits="userSpaceOnUse" gradientTransform="translate(333.195 352.961) rotate(101.578) scale(397.973 423.948)">
<stop stop-color="white"/>
<stop offset="1" stop-color="#B7F0E7"/>
</radialGradient>
</defs>
</svg>
